# xmcd
#
# Track frame offsets:
#  150
#  11752
#  23177
#  33762
#  46237
#  59654
#  70892
#  82726
#  94131
#  109392
#  121433
#  132823
#  144289
#  155056
#  167602
#
# Disc length: 2425 seconds
#
# Revision: 0
# Processed by: cddbd v1.5.1PL0 Copyright (c) Steve Scherf et al.
# Submitted via: Collectorz.com Music Collector 6.9
#
DISCID=c409770f
DTITLE=Various Artist - It Hurt Me So
DYEAR=2004
DGENRE=Country
TTITLE0=Hank Williams - My Son Calls Another Man Daddy
TTITLE1=Kitty Wells - On The Lonely Side of Town
TTITLE2=Jerry Wallace - Empty Arms Again
TTITLE3=Townes Van Zandt - Kathleen
TTITLE4=Kenny Rogers and The First Edition - Try Me One More Time
TTITLE5=Jim Reeves - If Heartaches Are The Fashion
TTITLE6=Conway Twitty - (Lying Here With) Linda On My Mind
TTITLE7=Dolly Parton - Makin' Believe
TTITLE8=Bill Monroe - In The Pines
TTITLE9=Jerry Lee Lewis - It Hurt Me So
TTITLE10=Tom Jones - Four Walls
TTITLE11=Patsy Cline - The Heart You Break May Be Your Own
TTITLE12=Johnny Cash - Train of Love
TTITLE13=Gene Autry - Take Me Back Into Your Heart
TTITLE14=Eddy Arnold - My Daddy Is Only A Picture
EXTD=
EXTT0=
EXTT1=
EXTT2=
EXTT3=
EXTT4=
EXTT5=
EXTT6=
EXTT7=
EXTT8=
EXTT9=
EXTT10=
EXTT11=
EXTT12=
EXTT13=
EXTT14=
PLAYORDER=
